<svg xmlns="http://www.w3.org/2000/svg" viewBox="0 0 24 24" fill="none">
  <defs>
    <linearGradient id="leafGradient" x1="0%" y1="0%" x2="100%" y2="100%">
      <stop offset="0%" style="stop-color:#22c55e;stop-opacity:1" />
      <stop offset="100%" style="stop-color:#16a34a;stop-opacity:1" />
    </linearGradient>
  </defs>
  
  <!-- Main stem -->
  <rect x="11" y="8" width="2" height="12" fill="#16a34a" rx="1"/>
  
  <!-- Leaves -->
  <path d="M8 6 C6 4, 4 6, 6 8 C8 10, 10 8, 8 6 Z" fill="url(#leafGradient)"/>
  <path d="M16 6 C18 4, 20 6, 18 8 C16 10, 14 8, 16 6 Z" fill="url(#leafGradient)"/>
  <path d="M10 10 C8 8, 6 10, 8 12 C10 14, 12 12, 10 10 Z" fill="url(#leafGradient)"/>
  <path d="M14 10 C16 8, 18 10, 16 12 C14 14, 12 12, 14 10 Z" fill="url(#leafGradient)"/>
  
  <!-- Small decorative dots -->
  <circle cx="12" cy="14" r="1" fill="#22c55e" opacity="0.6"/>
  <circle cx="11" cy="16" r="0.5" fill="#22c55e" opacity="0.4"/>
  <circle cx="13" cy="16" r="0.5" fill="#22c55e" opacity="0.4"/>
</svg>
