<svg xmlns="http://www.w3.org/2000/svg" viewBox="0 0 96 96">
  <defs>
    <linearGradient id="g" x1="0" x2="1" y1="0" y2="1">
      <stop offset="0" stop-color="#10b981"/>
      <stop offset="1" stop-color="#059669"/>
    </linearGradient>
  </defs>
  <rect width="96" height="96" rx="20" fill="url(#g)"/>
  <g fill="#ffffff">
    <path d="M48 18c-11 0-20 9-20 20 0 9-3 12-6 16-2 3 0 6 4 6h44c4 0 6-3 4-6-3-4-6-7-6-16 0-11-9-20-20-20z"/>
    <circle cx="48" cy="74" r="6"/>
  </g>
  <path d="M33 50c8-1 14-5 19-13 4 6 9 10 16 12-7 5-15 8-23 8-4 0-8-1-12-2z" fill="#e6fff7" opacity=".35"/>
</svg>